<svg width="24" height="24" viewBox="0 0 24 24" fill="none" xmlns="http://www.w3.org/2000/svg">
<path d="M2.99902 5.99951H4.99902H20.999" stroke="#737380" stroke-width="1.5" stroke-linecap="round" stroke-linejoin="round"/>
<path d="M7.99902 5.99951V3.99951C7.99902 3.46908 8.20974 2.96037 8.58481 2.5853C8.95988 2.21023 9.46859 1.99951 9.99902 1.99951H13.999C14.5295 1.99951 15.0382 2.21023 15.4132 2.5853C15.7883 2.96037 15.999 3.46908 15.999 3.99951V5.99951M18.999 5.99951V19.9995C18.999 20.5299 18.7883 21.0386 18.4132 21.4137C18.0382 21.7888 17.5295 21.9995 16.999 21.9995H6.99902C6.46859 21.9995 5.95988 21.7888 5.58481 21.4137C5.20974 21.0386 4.99902 20.5299 4.99902 19.9995V5.99951H18.999Z" stroke="#737380" stroke-width="1.5" stroke-linecap="round" stroke-linejoin="round"/>
</svg>
