<svg width="24" height="24" viewBox="0 0 24 24" fill="none" xmlns="http://www.w3.org/2000/svg">
<g clip-path="url(#clip0)">
<path d="M11.9998 4.99994C13.6166 4.99994 15.1011 5.55347 16.2861 6.474L19.9233 3.00403C17.8086 1.13989 15.0405 -6.10352e-05 11.9998 -6.10352e-05C7.39221 -6.10352e-05 3.39648 2.59985 1.38562 6.40979L5.43005 9.60272C6.40979 6.91931 8.97729 4.99994 11.9998 4.99994Z" fill="#FEFEFE"/>
<path d="M23.8959 13.5018C23.9584 13.0101 23.9998 12.5086 23.9998 11.9999C23.9998 11.1421 23.9061 10.3068 23.735 9.49994H11.9998V14.4999H18.486C17.9613 15.8637 17.027 17.0177 15.8378 17.8194L19.8973 21.0242C22.0492 19.1354 23.5218 16.4903 23.8959 13.5018Z" fill="#FEFEFE"/>
<path d="M4.99982 11.9999C4.99982 11.1565 5.15668 10.3516 5.43005 9.60272L1.38562 6.40979C0.50415 8.07996 -0.000183105 9.9801 -0.000183105 11.9999C-0.000183105 13.9972 0.494873 15.8763 1.35803 17.5329L5.40759 14.3359C5.14825 13.6044 4.99982 12.8204 4.99982 11.9999Z" fill="#FEFEFE"/>
<path d="M11.9998 18.9999C8.95428 18.9999 6.37024 17.0515 5.40759 14.3359L1.35803 17.5329C3.35907 21.3734 7.36963 23.9999 11.9998 23.9999C15.0276 23.9999 17.7886 22.8751 19.8973 21.0242L15.8378 17.8194C14.741 18.5588 13.4282 18.9999 11.9998 18.9999Z" fill="#FEFEFE"/>
<path opacity="0.1" d="M11.9998 23.7499C8.46814 23.7499 5.29254 22.2928 3.04736 19.9713C5.24518 22.4377 8.43628 23.9999 11.9998 23.9999C15.5304 23.9999 18.6951 22.4686 20.8879 20.0407C18.6494 22.3246 15.4979 23.7499 11.9998 23.7499Z" fill="#FEFEFE"/>
<path opacity="0.1" d="M11.9998 14.2499V14.4999H18.486L18.5873 14.2499H11.9998Z" fill="#FEFEFE"/>
<path d="M23.9943 12.147C23.9951 12.0977 23.9998 12.0493 23.9998 11.9999C23.9998 11.986 23.9976 11.9725 23.9976 11.9585C23.9969 12.0215 23.9937 12.0837 23.9943 12.147Z" fill="#E6E6E6"/>
<path opacity="0.2" d="M11.9998 9.49994V9.74994H23.7854C23.7696 9.66742 23.7524 9.58185 23.735 9.49994H11.9998Z" fill="#FEFEFE"/>
<path d="M23.735 9.49994H11.9998V14.4999H18.486C17.4774 17.1215 14.977 18.9999 11.9998 18.9999C8.13385 18.9999 4.99982 15.8659 4.99982 11.9999C4.99982 8.13391 8.13385 4.99994 11.9998 4.99994C13.4017 4.99994 14.6937 5.4306 15.7883 6.14062C15.9559 6.24951 16.1287 6.35174 16.2861 6.474L19.9233 3.00403L19.8412 2.94092C17.7368 1.117 15.0034 -6.10352e-05 11.9998 -6.10352e-05C5.37237 -6.10352e-05 -0.000183105 5.3725 -0.000183105 11.9999C-0.000183105 18.6273 5.37237 23.9999 11.9998 23.9999C18.1175 23.9999 23.1553 19.4187 23.8959 13.5018C23.9584 13.0101 23.9998 12.5086 23.9998 11.9999C23.9998 11.1421 23.9061 10.3068 23.735 9.49994Z" fill="#FEFEFE"/>
<path opacity="0.1" d="M15.7883 5.89062C14.6937 5.1806 13.4017 4.74994 11.9998 4.74994C8.13385 4.74994 4.99982 7.88391 4.99982 11.7499C4.99982 11.7921 5.00038 11.8251 5.00112 11.8671C5.06856 8.05945 8.17602 4.99994 11.9998 4.99994C13.4017 4.99994 14.6937 5.4306 15.7883 6.14062C15.9559 6.24951 16.1287 6.35175 16.2861 6.474L19.9233 3.00403L16.2861 6.224C16.1287 6.10175 15.9559 5.99951 15.7883 5.89062Z" fill="#FEFEFE"/>
<path opacity="0.2" d="M11.9998 0.249939C14.9749 0.249939 17.6827 1.34833 19.7791 3.14154L19.9233 3.00403L19.8133 2.90821C17.7088 1.0843 15.0034 -6.10352e-05 11.9998 -6.10352e-05C5.37237 -6.10352e-05 -0.000183105 5.3725 -0.000183105 11.9999C-0.000183105 12.0421 0.00567629 12.0828 0.00610349 12.1249C0.0738525 5.55579 5.41455 0.249939 11.9998 0.249939Z" fill="#FEFEFE"/>
</g>
<defs>
<clipPath id="clip0">
<rect width="24" height="24" fill="white" transform="translate(-0.000183105)"/>
</clipPath>
</defs>
</svg>
