<svg width="157" height="75" viewBox="0 0 157 75" fill="none" xmlns="http://www.w3.org/2000/svg">
<path d="M-0.000183105 18.9989H4.47263V40.2735H-0.000183105V18.9989Z" fill="#29292E"/>
<path d="M22.587 32.6181C22.587 32.6754 22.5583 33.0768 22.501 33.8223H10.8315C11.0418 34.778 11.5388 35.533 12.3225 36.0874C13.1062 36.6417 14.081 36.9188 15.247 36.9188C16.0498 36.9188 16.7571 36.8042 17.3687 36.5748C17.9995 36.3263 18.5825 35.944 19.1177 35.4279L21.4975 38.0084C20.0448 39.6713 17.923 40.5028 15.1323 40.5028C13.3929 40.5028 11.8542 40.1683 10.5161 39.4993C9.17811 38.8112 8.14592 37.865 7.41957 36.6608C6.69321 35.4566 6.33004 34.0899 6.33004 32.5607C6.33004 31.0507 6.68366 29.6935 7.3909 28.4893C8.11725 27.266 9.10165 26.3198 10.3441 25.6508C11.6057 24.9627 13.0106 24.6186 14.5589 24.6186C16.0689 24.6186 17.4356 24.9435 18.659 25.5934C19.8823 26.2433 20.838 27.18 21.5261 28.4033C22.2334 29.6075 22.587 31.0124 22.587 32.6181ZM14.5875 28.0019C13.5745 28.0019 12.7239 28.2886 12.0357 28.862C11.3476 29.4355 10.9271 30.2192 10.7742 31.2131H18.3722C18.2193 30.2383 17.7988 29.4641 17.1107 28.8907C16.4225 28.2982 15.5815 28.0019 14.5875 28.0019Z" fill="#29292E"/>
<path d="M34.3671 39.528C33.9275 39.8529 33.3827 40.1014 32.7328 40.2735C32.102 40.4264 31.433 40.5028 30.7258 40.5028C28.8908 40.5028 27.4668 40.0345 26.4537 39.0979C25.4597 38.1613 24.9627 36.785 24.9627 34.9692V28.6327H22.583V25.192H24.9627V21.436H29.4356V25.192H33.2776V28.6327H29.4356V34.9118C29.4356 35.5617 29.598 36.0682 29.923 36.4314C30.267 36.7755 30.7449 36.9475 31.3566 36.9475C32.0638 36.9475 32.6659 36.7564 33.1629 36.3741L34.3671 39.528Z" fill="#29292E"/>
<path d="M55.486 24.6186C57.4166 24.6186 58.9457 25.192 60.0735 26.3389C61.2204 27.4667 61.7938 29.1679 61.7938 31.4425V40.2735H57.321V32.1306C57.321 30.9073 57.063 29.9994 56.5469 29.4068C56.0499 28.7951 55.3331 28.4893 54.3965 28.4893C53.3452 28.4893 52.5137 28.8334 51.902 29.5215C51.2903 30.1905 50.9845 31.194 50.9845 32.532V40.2735H46.5117V32.1306C46.5117 29.7031 45.5368 28.4893 43.5872 28.4893C42.555 28.4893 41.733 28.8334 41.1214 29.5215C40.5097 30.1905 40.2039 31.194 40.2039 32.532V40.2735H35.7311V24.848H40.0032V26.6256C40.5766 25.9757 41.2743 25.4788 42.0962 25.1347C42.9373 24.7906 43.8548 24.6186 44.8487 24.6186C45.9383 24.6186 46.9227 24.8384 47.8019 25.2781C48.6812 25.6986 49.3884 26.3198 49.9236 27.1417C50.5544 26.3389 51.3477 25.7177 52.3034 25.2781C53.2783 24.8384 54.3391 24.6186 55.486 24.6186Z" fill="#29292E"/>
<path d="M79.9342 32.6181C79.9342 32.6754 79.9055 33.0768 79.8482 33.8223H68.1787C68.3889 34.778 68.8859 35.533 69.6696 36.0874C70.4533 36.6417 71.4282 36.9188 72.5942 36.9188C73.397 36.9188 74.1042 36.8042 74.7159 36.5748C75.3467 36.3263 75.9297 35.944 76.4649 35.4279L78.8446 38.0084C77.3919 39.6713 75.2702 40.5028 72.4795 40.5028C70.74 40.5028 69.2013 40.1683 67.8633 39.4993C66.5253 38.8112 65.4931 37.865 64.7667 36.6608C64.0404 35.4566 63.6772 34.0899 63.6772 32.5607C63.6772 31.0507 64.0308 29.6935 64.7381 28.4893C65.4644 27.266 66.4488 26.3198 67.6913 25.6508C68.9528 24.9627 70.3578 24.6186 71.906 24.6186C73.4161 24.6186 74.7828 24.9435 76.0061 25.5934C77.2295 26.2433 78.1852 27.18 78.8733 28.4033C79.5806 29.6075 79.9342 31.0124 79.9342 32.6181ZM71.9347 28.0019C70.9216 28.0019 70.071 28.2886 69.3829 28.862C68.6948 29.4355 68.2743 30.2192 68.1213 31.2131H75.7194C75.5665 30.2383 75.146 29.4641 74.4578 28.8907C73.7697 28.2982 72.9287 28.0019 71.9347 28.0019Z" fill="#29292E"/>
<path d="M106.086 24.848L103.018 40.2735H98.7746L99.0613 38.7538C97.7806 39.9198 96.2036 40.5028 94.3304 40.5028C93.1262 40.5028 92.0175 40.2257 91.0045 39.6713C89.9914 39.117 89.179 38.3238 88.5674 37.2916C87.9748 36.2403 87.6785 35.0074 87.6785 33.5929C87.6785 31.8917 88.0513 30.3625 88.7967 29.0054C89.5613 27.6291 90.5935 26.5587 91.8933 25.7941C93.1931 25.0104 94.6267 24.6186 96.1941 24.6186C98.5643 24.6186 100.237 25.3927 101.212 26.941L101.613 24.848H106.086ZM95.7067 36.8042C96.5859 36.8042 97.3696 36.5939 98.0578 36.1734C98.7459 35.7337 99.2811 35.1316 99.6634 34.367C100.046 33.6025 100.237 32.7232 100.237 31.7292C100.237 30.6779 99.9214 29.8464 99.2907 29.2348C98.679 28.6231 97.8188 28.3173 96.7102 28.3173C95.8309 28.3173 95.0472 28.5371 94.3591 28.9767C93.671 29.3972 93.1357 29.9898 92.7535 30.7544C92.3712 31.519 92.18 32.3982 92.18 33.3922C92.18 34.4435 92.4859 35.275 93.0975 35.8867C93.7283 36.4983 94.598 36.8042 95.7067 36.8042Z" fill="url(#paint0_linear)"/>
<path d="M111.632 40.5028C110.294 40.5028 109.023 40.3595 107.819 40.0728C106.633 39.7669 105.706 39.3751 105.037 38.8972L106.758 35.6573C107.427 36.0969 108.239 36.4505 109.195 36.7181C110.17 36.9857 111.144 37.1195 112.119 37.1195C113.132 37.1195 113.887 36.9953 114.384 36.7468C114.881 36.4792 115.13 36.1065 115.13 35.6286C115.13 35.2463 114.91 34.9692 114.47 34.7971C114.031 34.6251 113.324 34.4435 112.349 34.2524C111.24 34.0421 110.323 33.8127 109.596 33.5642C108.889 33.3157 108.268 32.9143 107.733 32.36C107.216 31.7866 106.958 31.0124 106.958 30.0376C106.958 28.3364 107.666 27.0079 109.08 26.0522C110.514 25.0965 112.387 24.6186 114.7 24.6186C115.77 24.6186 116.812 24.7333 117.825 24.9627C118.838 25.192 119.698 25.5074 120.405 25.9088L118.8 29.1774C117.538 28.3937 116.019 28.0019 114.241 28.0019C113.266 28.0019 112.521 28.1452 112.005 28.432C111.508 28.7187 111.259 29.0819 111.259 29.5215C111.259 29.9229 111.479 30.2192 111.919 30.4103C112.358 30.5824 113.094 30.7735 114.126 30.9838C115.216 31.194 116.105 31.4234 116.793 31.6719C117.5 31.9013 118.112 32.2931 118.628 32.8474C119.144 33.4018 119.402 34.1568 119.402 35.1125C119.402 36.8328 118.676 38.1613 117.223 39.0979C115.789 40.0345 113.926 40.5028 111.632 40.5028Z" fill="url(#paint1_linear)"/>
<path d="M131.595 31.5572L136.899 40.2735H131.709L128.039 34.281L125.316 36.5461L124.57 40.2735H120.097L124.341 18.9989H128.814L126.434 30.8977L133.831 24.848H139.652L131.595 31.5572Z" fill="url(#paint2_linear)"/>
<path d="M81.084 15.9023V8.73432C81.084 5.56731 83.6514 2.99994 86.8184 2.99994H148.463C151.63 2.99994 154.197 5.56731 154.197 8.73432V48.875C154.197 52.042 151.63 54.6094 148.463 54.6094H138.428L141.782 70.2602C142.075 71.6282 140.435 72.5629 139.407 71.614L124.092 57.4766H86.8184C83.6514 57.4766 81.084 54.9092 81.084 51.7422V48.875" stroke="url(#paint3_linear)" stroke-width="4.30079"/>
<defs>
<linearGradient id="paint0_linear" x1="87.6785" y1="18.9989" x2="99.7577" y2="53.1105" gradientUnits="userSpaceOnUse">
<stop stop-color="#485BFF"/>
<stop offset="1" stop-color="#FF59F8"/>
</linearGradient>
<linearGradient id="paint1_linear" x1="87.6785" y1="18.9989" x2="99.7577" y2="53.1105" gradientUnits="userSpaceOnUse">
<stop stop-color="#485BFF"/>
<stop offset="1" stop-color="#FF59F8"/>
</linearGradient>
<linearGradient id="paint2_linear" x1="87.6785" y1="18.9989" x2="99.7577" y2="53.1105" gradientUnits="userSpaceOnUse">
<stop stop-color="#485BFF"/>
<stop offset="1" stop-color="#FF59F8"/>
</linearGradient>
<linearGradient id="paint3_linear" x1="81.084" y1="2.99994" x2="141.295" y2="77.5469" gradientUnits="userSpaceOnUse">
<stop stop-color="#485BFF"/>
<stop offset="1" stop-color="#FF59F8"/>
</linearGradient>
</defs>
</svg>
